<svg id="Layer_1" data-name="Layer 1" xmlns="http://www.w3.org/2000/svg" viewBox="0 0 30.97 36"><defs><style>.cls-1{fill:#ffc007;}</style></defs><title>Artboard 1</title><g id="HexagonBug"><path class="cls-1" d="M15.19.22a.36.36,0,0,1,.3-.22A1.05,1.05,0,0,0,15,.12L.52,8.52A1.16,1.16,0,0,0,0,9.42V26.58A1,1,0,0,0,.1,27Z"/><path class="cls-1" d="M15.78.22,30.87,27a1,1,0,0,0,.1-.39V9.42a1.16,1.16,0,0,0-.52-.91L16,.12A1.05,1.05,0,0,0,15.48,0,.36.36,0,0,1,15.78.22Z"/><path class="cls-1" d="M15.48,7l-12,21.22a.91.91,0,0,0,.33,1.23L15,35.88a1.14,1.14,0,0,0,1,0l11.11-6.46a.91.91,0,0,0,.33-1.23Z"/></g></svg>
