<svg id="_x33_0" enable-background="new 0 0 64 64" height="512" viewBox="0 0 64 64" width="512" xmlns="http://www.w3.org/2000/svg"><g><path d="m19.187 16.464c.353 1.058 1.254 1.828 2.353 2.011l1.954.326c.954.159 1.729.754 2.153 1.559.231-.614.353-1.268.353-1.924 0-2.998-2.438-5.436-5.436-5.436h-1.129c-2.997 0-5.435 2.438-5.435 5.436 0 .673.131 1.344.374 1.971.419-.903 1.169-1.635 2.14-2.023l1.138-.456c-.144-.262-.266-.54-.363-.831l-.238-.715 1.897-.633z"/><path d="m7 11.902v5.659c0 4.811 1.899 9.27 5.044 12.563.65-.368 1.362-.621 2.107-.727l2.095-.299.363-1.088c-1.213-.834-2.1-2.103-2.446-3.58l-1.333-2.581c-.542-1.05-.83-2.23-.83-3.413 0-4.1 3.335-7.436 7.436-7.436h1.129c4.1 0 7.436 3.335 7.436 7.436 0 1.183-.287 2.363-.83 3.414l-1.333 2.581c-.346 1.476-1.233 2.745-2.446 3.58l.363 1.088 2.095.299c.745.106 1.458.359 2.108.727 3.143-3.294 5.042-7.753 5.042-12.564v-5.659c-4.825-.545-9.192-1.813-13-3.773-3.808 1.961-8.175 3.228-13 3.773z"/><path d="m19.998 29.065c-.541 0-1.062-.079-1.561-.214l-.362 1.087c.399.693 1.118 1.127 1.925 1.127s1.526-.435 1.925-1.127l-.362-1.087c-.499.135-1.02.214-1.561.214-.001 0-.003 0-.004 0z"/><path d="m20 27.065c2.206-.001 4-1.796 4-4.002v-1.304c0-.491-.352-.906-.836-.986l-1.953-.326c-.802-.133-1.542-.455-2.168-.922l-1.786.714c-.763.306-1.257 1.035-1.257 1.857v.967c0 2.206 1.794 4.001 4 4.002z"/><path d="m23.572 31.092c-.773 1.224-2.101 1.974-3.572 1.974s-2.799-.75-3.572-1.974l-1.994.285c-.285.041-.56.12-.827.219 1.844 1.519 4.005 2.681 6.392 3.367 2.388-.685 4.548-1.848 6.392-3.367-.267-.099-.542-.178-.827-.219z"/><path d="m52 41c4.962 0 9-4.038 9-9s-4.038-9-9-9-9 4.038-9 9 4.038 9 9 9zm-5.293-7.707 2.255 2.254 8.262-9.184 1.487 1.338-9.673 10.751-3.745-3.746z"/><path d="m13 42h3v4h-3v6h3v4h-3v1.382l6 3v-19.615c-2.146-.551-4.155-1.373-6-2.429z"/><path d="m29 57h32v-14h-32zm18-8h2.586l-1.293-1.293 1.414-1.414 1.293 1.293v-2.586h2v2.586l1.293-1.293 1.414 1.414-1.293 1.293h2.586v2h-2.586l1.293 1.293-1.414 1.414-1.293-1.293v2.586h-2v-2.586l-1.293 1.293-1.414-1.414 1.293-1.293h-2.586zm-14 0h2.586l-1.293-1.293 1.414-1.414 1.293 1.293v-2.586h2v2.586l1.293-1.293 1.414 1.414-1.293 1.293h2.586v2h-2.586l1.293 1.293-1.414 1.414-1.293-1.293v2.586h-2v-2.586l-1.293 1.293-1.414-1.414 1.293-1.293h-2.586z"/><path d="m25 47.219 2 .5v-5.438l-2 .5z"/><path d="m21 60.382 6-3v-7.601l-4-1v-7.562l4-1v-1.881c-1.845 1.055-3.854 1.877-6 2.429zm2-9.382h2v2h-2zm0 4h2v2h-2z"/><path d="m37 17.561v-9.564c-6.001-.076-11.856-1.739-17-4.825-5.144 3.086-10.999 4.749-17 4.825v9.564c0 10.311 6.979 19.084 17 21.414 10.021-2.33 17-11.103 17-21.414zm-16.739 19.404-.261.071-.261-.071c-8.678-2.347-14.739-10.327-14.739-19.404v-7.472l.907-.084c5.122-.478 9.704-1.785 13.62-3.886l.473-.254.473.253c3.916 2.101 8.499 3.408 13.62 3.886l.907.085v7.472c0 9.077-6.061 17.057-14.739 19.404z"/></g></svg>