<svg xmlns="http://www.w3.org/2000/svg" xmlns:xlink="http://www.w3.org/1999/xlink" width="14" height="14" viewBox="0 0 14 14">
  <defs>
    <clipPath id="clip-path">
      <path id="Path_5664" data-name="Path 5664" d="M12.6-11.6a1.38,1.38,0,0,0-.577.127L10.307-12.7a2.791,2.791,0,0,0,.193-1,2.772,2.772,0,0,0-.4-1.414l2.138-2.138a1.407,1.407,0,0,0,.358.052A1.4,1.4,0,0,0,14-18.6,1.4,1.4,0,0,0,12.6-20a1.4,1.4,0,0,0-1.4,1.4,1.407,1.407,0,0,0,.052.358L9.114-16.1A2.772,2.772,0,0,0,7.7-16.5a2.787,2.787,0,0,0-2.025.874L2.8-17.224A1.4,1.4,0,0,0,1.4-18.6,1.4,1.4,0,0,0,0-17.2a1.4,1.4,0,0,0,1.4,1.4,1.382,1.382,0,0,0,.715-.2L5-14.4a2.757,2.757,0,0,0-.1.7,2.772,2.772,0,0,0,.4,1.414L1.758-8.748A1.412,1.412,0,0,0,1.4-8.8,1.4,1.4,0,0,0,0-7.4,1.4,1.4,0,0,0,1.4-6,1.4,1.4,0,0,0,2.8-7.4a1.412,1.412,0,0,0-.052-.358L6.286-11.3A2.757,2.757,0,0,0,7-11v2.393A1.394,1.394,0,0,0,6.3-7.4,1.4,1.4,0,0,0,7.7-6,1.4,1.4,0,0,0,9.1-7.4a1.4,1.4,0,0,0-.7-1.205V-11a2.765,2.765,0,0,0,1.089-.56l1.725,1.232a1.186,1.186,0,0,0-.013.127,1.4,1.4,0,0,0,1.4,1.4A1.4,1.4,0,0,0,14-10.2a1.4,1.4,0,0,0-1.4-1.4" transform="translate(0 20)" fill="none"/>
    </clipPath>
  </defs>
  <g id="Group_7550" data-name="Group 7550" transform="translate(0 20)">
    <g id="Group_7549" data-name="Group 7549" transform="translate(0 -20)" clip-path="url(#clip-path)">
      <path id="Path_5663" data-name="Path 5663" d="M-5-25H16V-4H-5Z" transform="translate(1.5 21.5)" fill="#000"/>
    </g>
  </g>
</svg>
