<?xml version="1.0" encoding="utf-8"?>
<!-- Generator: Adobe Illustrator 22.1.0, SVG Export Plug-In . SVG Version: 6.00 Build 0)  -->
<svg version="1.1" id="Layer_1" xmlns="http://www.w3.org/2000/svg" xmlns:xlink="http://www.w3.org/1999/xlink" x="0px" y="0px"
	 viewBox="0 0 198.2 204.7" style="enable-background:new 0 0 198.2 204.7;" xml:space="preserve">
<style type="text/css">
	.st0{fill:#3A2C75;}
</style>
<g>
	<g>
		<g>
			<polygon class="st0" points="23.2,21.1 23.2,150.8 55.6,118.4 55.6,53.5 174.9,53.5 174.9,21.1 			"/>
			<rect x="88" y="85.9" class="st0" width="65.3" height="32.4"/>
			<polygon class="st0" points="23.2,150.8 55.6,183.2 174.9,183.2 174.9,150.8 			"/>
		</g>
	</g>
	<g id="XMLID_121_">
		<path id="XMLID_122_" class="st0" d="M180.2,26.3L180.2,26.3c0-2.9,2.3-5.3,5.2-5.3c2.9,0,5.2,2.4,5.2,5.2v0
			c0,2.8-2.3,5.2-5.2,5.2C182.4,31.5,180.2,29.1,180.2,26.3z M190.1,26.3L190.1,26.3c0-2.6-2-4.8-4.7-4.8c-2.7,0-4.8,2.2-4.8,4.8v0
			c0,2.6,2,4.7,4.7,4.7C188.1,31,190.1,28.9,190.1,26.3z M183.3,23.4h2.4c0.7,0,1.2,0.2,1.6,0.6c0.3,0.2,0.4,0.6,0.4,1v0
			c0,0.9-0.6,1.4-1.4,1.6l1.7,2.1h-1l-1.5-2h0h-1.3v2h-0.8V23.4z M185.7,26.1c0.8,0,1.3-0.3,1.3-1v0c0-0.6-0.5-0.9-1.2-0.9h-1.6v1.9
			H185.7z"/>
	</g>
</g>
</svg>
