<?xml version="1.0" encoding="utf-8"?>
<!-- Generator: Adobe Illustrator 22.0.1, SVG Export Plug-In . SVG Version: 6.00 Build 0)  -->
<svg version="1.1" id="Layer_1" xmlns="http://www.w3.org/2000/svg" xmlns:xlink="http://www.w3.org/1999/xlink" x="0px" y="0px"
	 viewBox="0 0 24 24" style="enable-background:new 0 0 24 24;" xml:space="preserve">
<style type="text/css">
	.st0{fill:#FFFFFF;}
	.st1{fill:none;stroke:#FF5722;stroke-width:0.5774;stroke-miterlimit:10;}
	.st2{fill:#FF5722;}
	.st3{fill:#FFFFFF;stroke:#4CAF50;stroke-width:0.5;stroke-miterlimit:10;}
	.st4{fill:#4CAF50;}
	.st5{fill:none;stroke:#FF0000;stroke-width:0.5;stroke-miterlimit:10;}
	.st6{fill:#FF0000;}
	.st7{fill:#FFFFFF;stroke:#03A9F4;stroke-width:0.5;stroke-miterlimit:10;}
	.st8{fill:#03A9F4;}
</style>
<g>
	<g>
		<g>
			<path class="st0" d="M21,20.25c0,0.413-0.337,0.75-0.75,0.75H3.75C3.338,21,3,20.663,3,20.25V3.75C3,3.338,3.338,3,3.75,3h16.5
				C20.663,3,21,3.338,21,3.75V20.25z"/>
			<path class="st5" d="M21,20.25c0,0.413-0.337,0.75-0.75,0.75H3.75C3.338,21,3,20.663,3,20.25V3.75C3,3.338,3.338,3,3.75,3h16.5
				C20.663,3,21,3.338,21,3.75V20.25z"/>
		</g>
		<polygon class="st6" points="16,6 12,10 8,6 6,8 10,12 6,16 8,18 12,14 16,18 18,16 14,12 18,8 		"/>
	</g>
</g>
</svg>
