<?xml version="1.0" encoding="utf-8"?>
<!-- Generator: Adobe Illustrator 22.0.1, SVG Export Plug-In . SVG Version: 6.00 Build 0)  -->
<svg version="1.1" id="Layer_1" xmlns="http://www.w3.org/2000/svg" xmlns:xlink="http://www.w3.org/1999/xlink" x="0px" y="0px"
	 viewBox="0 0 24 24" style="enable-background:new 0 0 24 24;" xml:space="preserve">
<style type="text/css">
	.st0{fill:#FFFFFF;}
	.st1{fill:none;stroke:#FF5722;stroke-width:0.5774;stroke-miterlimit:10;}
	.st2{fill:#FF5722;}
	.st3{fill:#FFFFFF;stroke:#4CAF50;stroke-width:0.5;stroke-miterlimit:10;}
	.st4{fill:#4CAF50;}
	.st5{fill:none;stroke:#FF0000;stroke-width:0.5;stroke-miterlimit:10;}
	.st6{fill:#FF0000;}
	.st7{fill:#FFFFFF;stroke:#03A9F4;stroke-width:0.5;stroke-miterlimit:10;}
	.st8{fill:#03A9F4;}
</style>
<g>
	<g>
		<circle class="st7" cx="12" cy="12" r="9"/>
		<g>
			<g>
				<path class="st8" d="M8.219,10.287c0.7,0.332,0.898,0.043,1.355,0.338c0.278,0.179,0.812,0.642,1.097,0.896l0.02-0.022
					c0.133-0.128,0.3-0.195,0.476-0.195c0.162,0,0.322,0.059,0.445,0.163l0.389-0.389l-0.268-0.255l0,0
					c-0.056-0.053-0.796-0.761-0.796-0.761s-0.626-0.849-0.744-1.704c-0.118-0.855-0.208-0.843-0.66-1
					C9.08,7.2,8.392,7.24,8.266,7.262S7.843,7.391,8.123,7.553C8.403,7.715,9.036,8.04,9.036,8.04s0.406,0.287,0.059,0.84
					C8.749,9.433,8.484,9.477,8.322,9.403C8.16,9.329,7.401,8.835,7.401,8.835S7.15,8.688,7.209,8.968
					C7.268,9.248,7.519,9.956,8.219,10.287z"/>
				<path class="st8" d="M8.219,10.287c0.7,0.332,0.898,0.043,1.355,0.338c0.278,0.179,0.812,0.642,1.097,0.896l0.02-0.022
					c0.133-0.128,0.3-0.195,0.476-0.195c0.162,0,0.322,0.059,0.445,0.163l0.389-0.389l-0.268-0.255l0,0
					c-0.056-0.053-0.796-0.761-0.796-0.761s-0.626-0.849-0.744-1.704c-0.118-0.855-0.208-0.843-0.66-1
					C9.08,7.2,8.392,7.24,8.266,7.262S7.843,7.391,8.123,7.553C8.403,7.715,9.036,8.04,9.036,8.04s0.406,0.287,0.059,0.84
					C8.749,9.433,8.484,9.477,8.322,9.403C8.16,9.329,7.401,8.835,7.401,8.835S7.15,8.688,7.209,8.968
					C7.268,9.248,7.519,9.956,8.219,10.287z"/>
				<path class="st8" d="M16.585,15.457l-0.001-0.001c0,0-0.001-0.001-0.001-0.001c-0.002-0.002-0.002-0.002-0.001-0.001
					l-3.605-3.43l-0.403,0.404c0.224,0.264,0.217,0.663-0.025,0.915c-0.017,0.018-0.039,0.029-0.058,0.045l3,3.153
					c-0.003-0.003-0.005-0.005-0.003-0.002c0.001,0.001,0.003,0.003,0.004,0.004l0.004,0.004l0,0
					c0.301,0.293,0.772,0.279,1.071-0.019C16.866,16.227,16.883,15.758,16.585,15.457L16.585,15.457z M14.659,15.275l-0.003-0.003
					c-0.002-0.002-0.003-0.003-0.001-0.001c0,0,0.001,0,0.001,0.001l0,0C14.657,15.273,14.659,15.275,14.659,15.275L14.659,15.275z"
					/>
				<path class="st8" d="M16.585,15.457l-0.001-0.001c0,0-0.001-0.001-0.001-0.001c-0.002-0.002-0.002-0.002-0.001-0.001
					l-3.605-3.43l-0.403,0.404c0.224,0.264,0.217,0.663-0.025,0.915c-0.017,0.018-0.039,0.029-0.058,0.045l3,3.153
					c-0.003-0.003-0.005-0.005-0.003-0.002c0.001,0.001,0.003,0.003,0.004,0.004l0.004,0.004l0,0
					c0.301,0.293,0.772,0.279,1.071-0.019C16.866,16.227,16.883,15.758,16.585,15.457L16.585,15.457z M14.659,15.275l-0.003-0.003
					c-0.002-0.002-0.003-0.003-0.001-0.001c0,0,0.001,0,0.001,0.001l0,0C14.657,15.273,14.659,15.275,14.659,15.275L14.659,15.275z"
					/>
			</g>
			<g>
				<path class="st8" d="M11.931,12.999c0.071,0.071,0.186,0.07,0.256-0.002c0.069-0.071,0.063-0.186-0.007-0.256l-0.313-0.313
					l3.736-3.736c0.049-0.049,0.109-0.086,0.176-0.109l0.281-0.094l0.508-0.762l-0.254-0.254L15.552,7.98l-0.094,0.281
					c-0.022,0.066-0.059,0.126-0.109,0.176l-3.736,3.736L11.3,11.859c-0.07-0.07-0.185-0.075-0.256-0.007
					c-0.005,0.005-0.009,0.009-0.013,0.014c-0.059,0.071-0.056,0.176,0.011,0.242c-0.07-0.07-0.184-0.07-0.254,0l-0.254,0.254
					l-0.254,0.254L8.247,14.65l-0.254,0.254l-0.508,0.508c-0.07,0.07-0.07,0.184,0,0.254l-0.032,0.032
					c-0.018,0.018-0.018,0.046,0,0.064l0.826,0.826c0.018,0.018,0.046,0.018,0.064,0l0.032-0.032c0.07,0.07,0.184,0.07,0.254,0
					l0.508-0.508l0.254-0.254l2.033-2.033l0.254-0.254l0.254-0.254C12.001,13.182,12.001,13.069,11.931,12.999z"/>
			</g>
			<g>
				<path class="st8" d="M11.931,12.999c0.071,0.071,0.186,0.07,0.256-0.002c0.069-0.071,0.063-0.186-0.007-0.256l-0.313-0.313
					l3.736-3.736c0.049-0.049,0.109-0.086,0.176-0.109l0.281-0.094l0.508-0.762l-0.254-0.254L15.552,7.98l-0.094,0.281
					c-0.022,0.066-0.059,0.126-0.109,0.176l-3.736,3.736L11.3,11.859c-0.07-0.07-0.185-0.075-0.256-0.007
					c-0.005,0.005-0.009,0.009-0.013,0.014c-0.059,0.071-0.056,0.176,0.011,0.242c-0.07-0.07-0.184-0.07-0.254,0l-0.254,0.254
					l-0.254,0.254L8.247,14.65l-0.254,0.254l-0.508,0.508c-0.07,0.07-0.07,0.184,0,0.254l-0.032,0.032
					c-0.018,0.018-0.018,0.046,0,0.064l0.826,0.826c0.018,0.018,0.046,0.018,0.064,0l0.032-0.032c0.07,0.07,0.184,0.07,0.254,0
					l0.508-0.508l0.254-0.254l2.033-2.033l0.254-0.254l0.254-0.254C12.001,13.182,12.001,13.069,11.931,12.999z"/>
			</g>
		</g>
	</g>
</g>
</svg>
